<?xml version="1.0" encoding="UTF-8" standalone="no"?>
<svg
   version="1.1"
   id="Capa_1"
   x="0px"
   y="0px"
   width="221.88327"
   height="167.44441"
   viewBox="0 0 221.88326 167.44442"
   xml:space="preserve"
   sodipodi:docname="butterfly-svgrepo-com.svg"
   inkscape:version="1.2.1 (9c6d41e410, 2022-07-14, custom)"
   inkscape:export-filename="logo.jpg"
   inkscape:export-xdpi="307.91931"
   inkscape:export-ydpi="307.91931"
   xmlns:inkscape="http://www.inkscape.org/namespaces/inkscape"
   xmlns:sodipodi="http://sodipodi.sourceforge.net/DTD/sodipodi-0.dtd"
   xmlns="http://www.w3.org/2000/svg"
   xmlns:svg="http://www.w3.org/2000/svg"><defs
   id="defs51" /><sodipodi:namedview
   id="namedview49"
   pagecolor="#ffffff"
   bordercolor="#000000"
   borderopacity="0.25"
   inkscape:showpageshadow="2"
   inkscape:pageopacity="0.0"
   inkscape:pagecheckerboard="0"
   inkscape:deskcolor="#d1d1d1"
   showgrid="false"
   showguides="true"
   inkscape:zoom="6.4025795"
   inkscape:cx="4.1389568"
   inkscape:cy="3.3580216"
   inkscape:window-width="1920"
   inkscape:window-height="1043"
   inkscape:window-x="0"
   inkscape:window-y="0"
   inkscape:window-maximized="1"
   inkscape:current-layer="g14"><sodipodi:guide
     position="105.93277,100.70548"
     orientation="0,-1"
     id="guide310"
     inkscape:locked="false" /></sodipodi:namedview>
<g
   id="g16"
   transform="translate(50.79405,30.121014)">
	<g
   id="g14">
		<rect
   style="fill:#000000;stroke-width:2.20903"
   id="rect727"
   width="221.88329"
   height="167.44443"
   x="-50.794048"
   y="-30.121014" /><ellipse
   style="fill:#ffffff;stroke-width:0.961556"
   id="path618"
   cx="23.805801"
   cy="23.80974"
   rx="31.686937"
   ry="31.739159" /><path
   d="M 10.017,10.475 C 4.485,10.475 0,14.959 0,20.492 c 0,4.527 3.004,8.349 7.127,9.589 -0.456,0.91 -0.718,1.934 -0.718,3.021 0,3.733 3.027,6.76 6.76,6.76 3.734,0 6.76,-3.026 6.76,-6.76 0,-2.274 0.105,-9.833 0.105,-12.609 C 20.035,14.959 15.55,10.475 10.017,10.475 Z"
   id="path2"
   style="fill:#000000" />
		<path
   d="m 46.303,20.491 c 0,-5.532 -4.484,-10.017 -10.017,-10.017 -5.533,0 -10.017,4.484 -10.017,10.017 0,2.776 0.104,10.334 0.104,12.609 0,3.733 3.025,6.76 6.76,6.76 3.735,0 6.76,-3.026 6.76,-6.76 0,-1.087 -0.262,-2.108 -0.717,-3.021 4.123,-1.24 7.127,-5.06 7.127,-9.588 z"
   id="path4"
   style="fill:#000000" />
		<path
   d="m 24.357,15.022 c -0.045,-0.585 -0.51,-1.067 -1.114,-1.113 -0.665,-0.05 -1.246,0.448 -1.296,1.113 0,0 -0.412,5.425 -0.823,10.849 -0.083,0.678 -0.048,1.355 -0.013,2.023 0.028,0.667 0.055,1.324 0.082,1.96 0.053,1.271 0.103,2.458 0.146,3.476 0.085,2.033 0.142,3.389 0.142,3.389 0.039,0.857 0.728,1.564 1.601,1.602 0.922,0.039 1.702,-0.678 1.74,-1.602 0,0 0.057,-1.354 0.143,-3.389 0.041,-1.018 0.092,-2.203 0.146,-3.476 0.026,-0.636 0.054,-1.293 0.083,-1.96 0.035,-0.668 0.07,-1.346 -0.014,-2.023 -0.412,-5.424 -0.823,-10.849 -0.823,-10.849 z"
   id="path6"
   style="fill:#000000" />
		<path
   d="m 21.293,14.592 c 0.169,-0.236 0.114,-0.564 -0.122,-0.733 -2.009,-1.438 -3.468,-3.403 -4.098,-5.482 0.236,-0.201 0.386,-0.501 0.386,-0.836 0,-0.607 -0.492,-1.1 -1.1,-1.1 -0.608,0 -1.1,0.492 -1.1,1.1 0,0.497 0.33,0.916 0.782,1.053 0.683,2.332 2.294,4.528 4.518,6.12 0.092,0.066 0.2,0.099 0.305,0.099 0.165,-0.001 0.327,-0.078 0.429,-0.221 z"
   id="path8"
   style="fill:#000000" />
		<g
   id="g12"
   style="fill:#000000">
			
		</g>
	<path
   d="m 25.01,14.592 c -0.168,-0.236 -0.113,-0.564 0.123,-0.733 2.008,-1.438 3.469,-3.403 4.098,-5.482 -0.236,-0.201 -0.387,-0.501 -0.387,-0.836 0,-0.607 0.493,-1.1 1.101,-1.1 0.606,0 1.1,0.492 1.1,1.1 0,0.497 -0.329,0.916 -0.782,1.053 -0.683,2.332 -2.293,4.528 -4.518,6.12 -0.094,0.066 -0.2,0.099 -0.307,0.099 -0.165,-0.001 -0.325,-0.078 -0.428,-0.221 z"
   id="path10"
   style="fill:#000000" /></g>
</g>















</svg>
